<?xml version="1.0" encoding="UTF-8" standalone="no"?><svg xmlns="http://www.w3.org/2000/svg" xmlns:xlink="http://www.w3.org/1999/xlink" contentScriptType="application/ecmascript" contentStyleType="text/css" height="288px" preserveAspectRatio="none" style="width:371px;height:288px;background:#FFFFFF;" version="1.1" viewBox="0 0 371 288" width="371px" zoomAndPan="magnify"><defs><filter height="300%" id="fxqeluwxp9uvd" width="300%" x="-1" y="-1"><feGaussianBlur result="blurOut" stdDeviation="2.0"/><feColorMatrix in="blurOut" result="blurOut2" type="matrix" values="0 0 0 0 0 0 0 0 0 0 0 0 0 0 0 0 0 0 .4 0"/><feOffset dx="4.0" dy="4.0" in="blurOut2" result="blurOut3"/><feBlend in="SourceGraphic" in2="blurOut3" mode="normal"/></filter></defs><g><rect fill="#FFFFFF" filter="url(#fxqeluwxp9uvd)" height="151.7578" style="stroke:#A80036;stroke-width:1.0;" width="10" x="94.5" y="73.9609"/><rect fill="#FFFFFF" filter="url(#fxqeluwxp9uvd)" height="91.0547" style="stroke:#A80036;stroke-width:1.0;" width="10" x="247.5" y="104.3125"/><rect fill="#FFFFFF" filter="url(#fxqeluwxp9uvd)" height="30.3516" style="stroke:#A80036;stroke-width:1.0;" width="10" x="342.5" y="134.6641"/><line style="stroke:#A80036;stroke-width:1.0;stroke-dasharray:5.0,5.0;" x1="28" x2="28" y1="41.6094" y2="243.7188"/><line style="stroke:#A80036;stroke-width:1.0;stroke-dasharray:5.0,5.0;" x1="99" x2="99" y1="41.6094" y2="243.7188"/><line style="stroke:#A80036;stroke-width:1.0;stroke-dasharray:5.0,5.0;" x1="252" x2="252" y1="41.6094" y2="243.7188"/><line style="stroke:#A80036;stroke-width:1.0;stroke-dasharray:5.0,5.0;" x1="347.5" x2="347.5" y1="41.6094" y2="243.7188"/><rect fill="#FEFECE" filter="url(#fxqeluwxp9uvd)" height="31.6094" style="stroke:#A80036;stroke-width:1.5;" width="43" x="5" y="5"/><text fill="#000000" font-family="sans-serif" font-size="14" lengthAdjust="spacing" textLength="29" x="12" y="26.5332">User</text><rect fill="#FEFECE" filter="url(#fxqeluwxp9uvd)" height="31.6094" style="stroke:#A80036;stroke-width:1.5;" width="43" x="5" y="242.7188"/><text fill="#000000" font-family="sans-serif" font-size="14" lengthAdjust="spacing" textLength="29" x="12" y="264.252">User</text><rect fill="#FEFECE" filter="url(#fxqeluwxp9uvd)" height="31.6094" style="stroke:#A80036;stroke-width:1.5;" width="23" x="86" y="5"/><text fill="#000000" font-family="sans-serif" font-size="14" lengthAdjust="spacing" textLength="9" x="93" y="26.5332">A</text><rect fill="#FEFECE" filter="url(#fxqeluwxp9uvd)" height="31.6094" style="stroke:#A80036;stroke-width:1.5;" width="23" x="86" y="242.7188"/><text fill="#000000" font-family="sans-serif" font-size="14" lengthAdjust="spacing" textLength="9" x="93" y="264.252">A</text><rect fill="#FEFECE" filter="url(#fxqeluwxp9uvd)" height="31.6094" style="stroke:#A80036;stroke-width:1.5;" width="23" x="239" y="5"/><text fill="#000000" font-family="sans-serif" font-size="14" lengthAdjust="spacing" textLength="9" x="246" y="26.5332">B</text><rect fill="#FEFECE" filter="url(#fxqeluwxp9uvd)" height="31.6094" style="stroke:#A80036;stroke-width:1.5;" width="23" x="239" y="242.7188"/><text fill="#000000" font-family="sans-serif" font-size="14" lengthAdjust="spacing" textLength="9" x="246" y="264.252">B</text><rect fill="#FEFECE" filter="url(#fxqeluwxp9uvd)" height="31.6094" style="stroke:#A80036;stroke-width:1.5;" width="24" x="333.5" y="5"/><text fill="#000000" font-family="sans-serif" font-size="14" lengthAdjust="spacing" textLength="10" x="340.5" y="26.5332">C</text><rect fill="#FEFECE" filter="url(#fxqeluwxp9uvd)" height="31.6094" style="stroke:#A80036;stroke-width:1.5;" width="24" x="333.5" y="242.7188"/><text fill="#000000" font-family="sans-serif" font-size="14" lengthAdjust="spacing" textLength="10" x="340.5" y="264.252">C</text><rect fill="#FFFFFF" filter="url(#fxqeluwxp9uvd)" height="151.7578" style="stroke:#A80036;stroke-width:1.0;" width="10" x="94.5" y="73.9609"/><rect fill="#FFFFFF" filter="url(#fxqeluwxp9uvd)" height="91.0547" style="stroke:#A80036;stroke-width:1.0;" width="10" x="247.5" y="104.3125"/><rect fill="#FFFFFF" filter="url(#fxqeluwxp9uvd)" height="30.3516" style="stroke:#A80036;stroke-width:1.0;" width="10" x="342.5" y="134.6641"/><polygon fill="#A80036" points="82.5,69.9609,92.5,73.9609,82.5,77.9609,86.5,73.9609" style="stroke:#A80036;stroke-width:1.0;"/><line style="stroke:#A80036;stroke-width:1.0;" x1="28.5" x2="88.5" y1="73.9609" y2="73.9609"/><text fill="#000000" font-family="sans-serif" font-size="13" lengthAdjust="spacing" textLength="47" x="35.5" y="69.1045">DoWork</text><polygon fill="#A80036" points="235.5,100.3125,245.5,104.3125,235.5,108.3125,239.5,104.3125" style="stroke:#A80036;stroke-width:1.0;"/><line style="stroke:#A80036;stroke-width:1.0;" x1="104.5" x2="241.5" y1="104.3125" y2="104.3125"/><text fill="#000000" font-family="sans-serif" font-size="13" lengthAdjust="spacing" textLength="124" x="111.5" y="99.4561">&lt;&lt; createRequest &gt;&gt;</text><polygon fill="#A80036" points="330.5,130.6641,340.5,134.6641,330.5,138.6641,334.5,134.6641" style="stroke:#A80036;stroke-width:1.0;"/><line style="stroke:#A80036;stroke-width:1.0;" x1="257.5" x2="336.5" y1="134.6641" y2="134.6641"/><text fill="#000000" font-family="sans-serif" font-size="13" lengthAdjust="spacing" textLength="47" x="264.5" y="129.8076">DoWork</text><polygon fill="#A80036" points="268.5,161.0156,258.5,165.0156,268.5,169.0156,264.5,165.0156" style="stroke:#A80036;stroke-width:1.0;"/><line style="stroke:#A80036;stroke-width:1.0;stroke-dasharray:2.0,2.0;" x1="262.5" x2="346.5" y1="165.0156" y2="165.0156"/><text fill="#000000" font-family="sans-serif" font-size="13" lengthAdjust="spacing" textLength="61" x="274.5" y="160.1592">WorkDone</text><line style="stroke:#A80036;stroke-width:2.0;" x1="338.5" x2="356.5" y1="156.0156" y2="174.0156"/><line style="stroke:#A80036;stroke-width:2.0;" x1="338.5" x2="356.5" y1="174.0156" y2="156.0156"/><polygon fill="#A80036" points="115.5,191.3672,105.5,195.3672,115.5,199.3672,111.5,195.3672" style="stroke:#A80036;stroke-width:1.0;"/><line style="stroke:#A80036;stroke-width:1.0;stroke-dasharray:2.0,2.0;" x1="109.5" x2="251.5" y1="195.3672" y2="195.3672"/><text fill="#000000" font-family="sans-serif" font-size="13" lengthAdjust="spacing" textLength="93" x="121.5" y="190.5107">RequestCreated</text><polygon fill="#A80036" points="39.5,221.7188,29.5,225.7188,39.5,229.7188,35.5,225.7188" style="stroke:#A80036;stroke-width:1.0;"/><line style="stroke:#A80036;stroke-width:1.0;" x1="33.5" x2="98.5" y1="225.7188" y2="225.7188"/><text fill="#000000" font-family="sans-serif" font-size="13" lengthAdjust="spacing" textLength="30" x="45.5" y="220.8623">Done</text><!--MD5=[fe06577f89ed63a0d7191e72a7eb4e41]
@startuml
participant User

User -> A: DoWork
activate A

A -> B: << createRequest >>
activate B

B -> C: DoWork
activate C
C - -> B: WorkDone
destroy C

B - -> A: RequestCreated
deactivate B

A -> User: Done
deactivate A

@enduml

PlantUML version 1.2021.12(Tue Oct 05 13:01:58 BRT 2021)
(GPL source distribution)
Java Runtime: OpenJDK Runtime Environment
JVM: OpenJDK 64-Bit Server VM
Default Encoding: Cp1252
Language: pt
Country: BR
--></g></svg>